# xmcd CD database file
#
# Track frame offsets:
#	150
#	10702
#	24100
#	41754
#	55497
#	68668
#	79841
#	97503
#	109477
#	121813
#	134289
#	147823
#	169691
#	182799
#
# Disc length: 2602 seconds
#
# Revision: 2
# Processed by: cddbd v1.5.2PL0 Copyright (c) Steve Scherf et al.
# Submitted via: CDex 1.50Beta7
#
DISCID=ae0a280e
DTITLE=Tom Astor - Truck Gold
DYEAR=1996
DGENRE=Country
TTITLE0=Highway-Helden
TTITLE1=Der kleine Trucker
TTITLE2=Lucicille (Lucille)
TTITLE3=Viel erlebt und viel vers‰umt (Banks of ohio)
TTITLE4=Truck Drivin`Girl
TTITLE5=Panamerican Highway
TTITLE6=Mein Freund Charly
TTITLE7=Guten Morgen, Deutschland
TTITLE8=Verdammte Radarfalle (Lady Trucker)
TTITLE9=Hier riecht`s nach Freiheit (Five Miles from Houson)
TTITLE10=Six days on the Road
TTITLE11=Kameraden der Straﬂe
TTITLE12=Ich bin einer so wie Du
TTITLE13=Von New Yourk City nach L.A.
EXTD=YEAR: 1996
EXTT0=
EXTT1=
EXTT2=
EXTT3=
EXTT4=
EXTT5=
EXTT6=
EXTT7=
EXTT8=
EXTT9=
EXTT10=
EXTT11=
EXTT12=
EXTT13=
PLAYORDER=
